<?xml version="1.0" encoding="UTF-8" standalone="no"?>
<!DOCTYPE svg PUBLIC "-//W3C//DTD SVG 1.1//EN"
"http://www.w3.org/Graphics/SVG/1.1/DTD/svg11.dtd">
<svg viewBox="0 0 936 668" version="1.1" xmlns="http://www.w3.org/2000/svg" xmlns:xlink="http://www.w3.org/1999/xlink">
<defs>
<style type="text/css"><![CDATA[
.g0_5{
fill: #00AEEF;
}
.g1_5{
fill: none;
stroke: #231F20;
stroke-width: 1.527;
stroke-linecap: butt;
stroke-linejoin: miter;
}
.g2_5{
fill: none;
stroke: #231F20;
stroke-width: 1.527;
stroke-linecap: butt;
stroke-linejoin: miter;
stroke-miterlimit: 4;
}
]]></style>
</defs>
<path d="M39.6,359.2H206v26.2H39.6V359.2Zm166.4,0H403.4v26.2H206V359.2Z" class="g0_5"/>
<path d="M38.8,359.2H206M39.6,384.7V360M206,359.2H404.1M206,384.7V360m197.4,24.7V360M38.8,385.4H206M39.6,408.6V386.2M206,385.4H404.1M206,408.6V386.2m197.4,22.4V386.2M38.8,409.3H206M39.6,432.8V410.1M206,409.3H404.1M206,432.8V410.1m197.4,22.7V410.1M38.8,433.6H206M39.6,460.5V434.3M206,433.6H404.1M206,460.5V434.3m197.4,26.2V434.3m-364.6,27H206M39.6,484.4V462.1M206,461.3H404.1M206,484.4V462.1m197.4,22.3V462.1M38.8,485.2H206M39.6,508.4V486M206,485.2H404.1M206,508.4V486m197.4,22.4V486M38.8,509.1H206M39.6,532.3V509.9M206,509.1H404.1M206,532.3V509.9m197.4,22.4V509.9M38.8,533H206m0,0H404.1" class="g1_5"/>
<path d="M460.3,361H626.7v27H460.3V361Zm166.4,0H870.6v27H626.7V361Z" class="g0_5"/>
<path d="M459.5,361H626.7M460.3,387.3V361.7M626.7,361H871.4M626.7,387.3V361.7m243.9,25.6V361.7M459.5,388H626.7M460.3,411.2V388.8M626.7,388H871.4M626.7,411.2V388.8m243.9,22.4V388.8M459.5,411.9H626.7M460.3,435.4V412.7m166.4,-.8H871.4M626.7,435.4V412.7m243.9,22.7V412.7M459.5,436.2H626.7M460.3,463.1V436.9m166.4,-.7H871.4M626.7,463.1V436.9m243.9,26.2V436.9m-411.1,27H626.7M460.3,487V464.7m166.4,-.8H871.4M626.7,487V464.7M870.6,487V464.7M459.5,487.8H626.7M460.3,511V488.6m166.4,-.8H871.4M626.7,511V488.6M870.6,511V488.6M459.5,511.7H626.7M460.3,534.9V512.5m166.4,-.8H871.4M626.7,534.9V512.5m243.9,22.4V512.5M459.5,535.6H626.7m0,0H871.4" class="g1_5"/>
<path d="M142.9,57H899.7" class="g2_5"/>
<image preserveAspectRatio="none" x="20" y="19" width="123" height="74" xlink:href="img/1.png"/>
</svg>